<svg width="100" height="50" viewBox="0 0 202 87" fill="none" xmlns="http://www.w3.org/2000/svg">
<path d="M10.0325 12.5394C10.0746 11.599 9.57358 10.6034 8.68294 9.92766C7.80453 9.27541 6.79035 9.11408 5.90922 9.46571C5.74766 9.16096 5.65262 8.84932 5.62818 8.55422L5.06746 9.23267L4.55833 9.84906C4.68731 10.18 4.88553 10.5165 5.11634 10.8392L5.53586 11.4073L6.09522 10.9812C6.83379 10.4006 7.61853 10.9026 7.84797 11.0763C8.44942 11.5259 8.76848 12.2402 8.58655 12.7366L8.3571 13.3392L8.93275 13.6205C9.16763 13.7363 9.39029 13.8301 9.61023 13.9032L10.1085 13.2978L10.6393 12.6677C10.4466 12.6511 10.2402 12.6015 10.0325 12.5394ZM12.5401 9.26576L12.1694 8.739L11.6223 9.06168C11.1729 9.33057 10.4248 9.13338 9.88584 8.61076C9.67812 8.42322 9.05359 7.71305 9.47854 6.88706L9.80574 6.25136L9.18121 5.91903C8.82821 5.7439 8.47929 5.60463 8.13444 5.53154L7.62532 6.14794L7.05374 6.82776C7.34564 6.81397 7.65247 6.85396 7.9756 6.95187C7.79774 7.89232 8.11951 8.88103 8.91646 9.64498C9.72699 10.4296 10.7778 10.7481 11.6834 10.5413C11.7784 10.7385 11.8626 10.9371 11.9128 11.1274L12.9325 9.89319C12.8238 9.68634 12.6935 9.48088 12.5401 9.26576Z" fill="#1976d2" stroke="#1976d2" stroke-width="1.35185"/>
<path d="M26.2139 78.7607C25.4672 78.7607 24.8399 78.165 24.8128 77.4066C24.2765 62.289 32.2202 56.6298 39.9101 51.1526C45.8064 46.9523 51.4381 42.9409 53.3266 34.6409C56.6936 19.853 46.4541 5.07882 31.521 4.50104C18.2145 3.98669 7.2282 14.8308 7.2282 28.2329C7.2282 39.6066 15.0199 49.5199 25.5527 51.8283C26.2655 51.9855 26.7217 52.697 26.6103 53.4292C26.4841 54.2525 25.6939 54.7737 24.8929 54.5958C12.1063 51.7524 2.94746 38.9405 4.62554 24.9138C6.14885 12.1846 16.7591 2.26161 29.3691 1.6659C44.37 0.958493 56.7968 13.1499 56.7968 28.2329C56.7968 42.5989 49.0296 48.1313 41.5189 53.483C34.1631 58.7217 27.2077 63.8597 27.6136 77.3128C27.6381 78.1071 26.9973 78.7607 26.2152 78.7607H26.2139Z" fill="#1976d2" stroke="#1976d2" stroke-width="1.68982" stroke-miterlimit="10"/>
<path d="M32.376 75.3532C31.9388 75.3311 31.5858 74.9671 31.5776 74.5161C31.4459 66.8036 35.8163 62.0117 39.5051 59.3504C39.8839 59.0773 40.4093 59.1656 40.6781 59.5517C40.9469 59.9364 40.8573 60.4701 40.4799 60.7417C37.1197 63.1659 33.1403 67.5179 33.2598 74.4858C33.2679 74.9574 32.8973 75.3463 32.433 75.3532C32.414 75.3545 32.395 75.3545 32.376 75.3532Z" fill="#1976d2" stroke="#1976d2" stroke-width="1.68982" stroke-miterlimit="10"/>
<path d="M1.87381 18.0322C1.78149 18.0336 1.68645 18.0198 1.59413 17.9936C1.07279 17.8405 0.772741 17.289 0.922085 16.7608C3.03191 9.31307 8.2603 3.236 15.2659 0.0850817C15.7614 -0.136931 16.3412 0.0905975 16.5598 0.592538C16.7797 1.09724 16.5557 1.68467 16.0601 1.90807C9.58675 4.81767 4.75615 10.4328 2.80789 17.3124C2.68434 17.7454 2.29741 18.0281 1.87381 18.0322Z" fill="#1976d2" stroke="#1976d2" stroke-width="1.68982" stroke-miterlimit="10"/>
<path d="M32.8861 9.00089C32.0498 12.0787 28.9598 12.0787 28.1234 9.00089C29.9889 8.37484 30.1206 4.92331 27.7297 4.42551C28.566 1.04154 32.4435 1.04154 33.2799 4.42551C30.889 4.92331 31.0207 8.37484 32.8861 9.00089Z" fill="#1976d2" stroke="#1976d2" stroke-width="1.68982" stroke-miterlimit="10"/>
<path d="M30.5548 48.1321C19.7952 48.1321 11.1658 39.253 11.1658 28.4392C11.1658 17.624 19.9079 8.74493 30.5548 8.74493C37.392 8.74493 43.7798 12.3881 47.2541 18.4211C47.7022 19.2181 47.4781 20.2427 46.6934 20.8122C45.91 21.2672 44.9013 21.0397 44.3406 20.2427C41.427 15.3474 36.1592 12.2737 30.5548 12.2737C21.7 12.2737 14.5274 19.5601 14.5274 28.5523C14.5274 37.5458 21.7 44.8309 30.5548 44.8309C38.5121 44.8309 45.4606 38.7979 46.4694 30.7159C46.5821 29.8044 47.4781 29.1218 48.3756 29.2349C49.2716 29.3493 49.9437 30.2594 49.8323 31.1709C48.4869 40.8471 40.1929 48.1321 30.5548 48.1321Z" fill="#1976d2" stroke="#1976d2" stroke-width="1.68982" stroke-miterlimit="10"/>
<path d="M41.7626 30.8564C40.3221 37.1762 34.0877 41.1269 27.8655 39.6624C21.6433 38.1994 17.7536 31.8686 19.1954 25.5488C19.9584 22.2035 22.1158 19.3697 25.1135 17.777C25.8684 17.3743 26.8011 17.6708 27.1962 18.4389C27.5912 19.2056 27.2993 20.1529 26.5445 20.5542C24.3437 21.7236 22.762 23.8017 22.2026 26.2562C21.145 30.8909 23.9988 35.5352 28.562 36.6094C33.1265 37.6823 37.6991 34.7851 38.7554 30.149C39.6026 26.4369 37.9937 22.6558 34.7543 20.7431C34.0185 20.3074 33.7687 19.3449 34.1963 18.6002C34.6253 17.8515 35.5689 17.5977 36.3061 18.0321C40.724 20.6425 42.9166 25.7956 41.7626 30.8564Z" fill="#1976d2" stroke="#1976d2" stroke-width="1.68982" stroke-miterlimit="10"/>
<path d="M30.5548 48.1321C19.7952 48.1321 11.1658 39.253 11.1658 28.4392C11.1658 17.624 19.9079 8.74493 30.5548 8.74493C37.392 8.74493 43.7798 12.3881 47.2541 18.4211C47.7022 19.2181 47.4781 20.2427 46.6934 20.8122C45.91 21.2672 44.9013 21.0397 44.3406 20.2427C41.427 15.3474 36.1592 12.2737 30.5548 12.2737C21.7 12.2737 14.5274 19.5601 14.5274 28.5523C14.5274 37.5458 21.7 44.8309 30.5548 44.8309C38.5121 44.8309 45.4606 38.7979 46.4694 30.7159C46.5821 29.8044 47.4781 29.1218 48.3756 29.2349C49.2716 29.3493 49.9437 30.2594 49.8323 31.1709C48.4869 40.8471 40.1929 48.1321 30.5548 48.1321Z" fill="#1976d2" stroke="#1976d2" stroke-width="1.35185"/>
<path d="M30.5548 48.1321C19.7952 48.1321 11.1658 39.253 11.1658 28.4392C11.1658 17.624 19.9079 8.74493 30.5548 8.74493C37.392 8.74493 43.7798 12.3881 47.2541 18.4211C47.7022 19.2181 47.4781 20.2427 46.6934 20.8122C45.91 21.2672 44.9013 21.0397 44.3406 20.2427C41.427 15.3474 36.1592 12.2737 30.5548 12.2737C21.7 12.2737 14.5274 19.5601 14.5274 28.5523C14.5274 37.5458 21.7 44.8309 30.5548 44.8309C38.5121 44.8309 45.4606 38.7979 46.4694 30.7159C46.5821 29.8044 47.4781 29.1218 48.3756 29.2349C49.2716 29.3493 49.9437 30.2594 49.8323 31.1709C48.4869 40.8471 40.1929 48.1321 30.5548 48.1321Z" fill="#1976d2" stroke="#1976d2" stroke-width="1.35185"/>
<path d="M41.7626 30.8564C40.3221 37.1762 34.0877 41.1269 27.8655 39.6624C21.6433 38.1994 17.7536 31.8686 19.1954 25.5488C19.9584 22.2035 22.1158 19.3697 25.1135 17.777C25.8684 17.3743 26.8011 17.6708 27.1962 18.4389C27.5912 19.2056 27.2993 20.1529 26.5445 20.5542C24.3437 21.7236 22.762 23.8017 22.2026 26.2562C21.145 30.8909 23.9988 35.5352 28.562 36.6094C33.1265 37.6823 37.6991 34.7851 38.7554 30.149C39.6026 26.4369 37.9937 22.6558 34.7543 20.7431C34.0185 20.3074 33.7687 19.3449 34.1963 18.6002C34.6253 17.8515 35.5689 17.5977 36.3061 18.0321C40.724 20.6425 42.9166 25.7956 41.7626 30.8564Z" fill="#1976d2" stroke="#1976d2" stroke-width="1.35185"/>
<path d="M32.8861 9.00089C32.0498 12.0787 28.9598 12.0787 28.1234 9.00089C29.9889 8.37484 30.1206 4.92331 27.7297 4.42551C28.566 1.04154 32.4435 1.04154 33.2799 4.42551C30.889 4.92331 31.0207 8.37484 32.8861 9.00089Z" fill="#1976d2" stroke="#1976d2" stroke-width="1.35185"/>
<path d="M26.2139 78.7607C25.4672 78.7607 24.8399 78.165 24.8128 77.4066C24.2765 62.289 32.2202 56.6298 39.9101 51.1526C45.8064 46.9523 51.4381 42.9409 53.3266 34.6409C56.6936 19.853 46.4541 5.07882 31.521 4.50104C18.2145 3.98669 7.2282 14.8308 7.2282 28.2329C7.2282 39.6066 15.0199 49.5199 25.5527 51.8283C26.2655 51.9855 26.7217 52.697 26.6103 53.4292C26.4841 54.2525 25.6939 54.7737 24.8929 54.5958C12.1063 51.7524 2.94746 38.9405 4.62554 24.9138C6.14885 12.1846 16.7591 2.26161 29.3691 1.6659C44.37 0.958493 56.7968 13.1499 56.7968 28.2329C56.7968 42.5989 49.0296 48.1313 41.5189 53.483C34.1631 58.7217 27.2077 63.8597 27.6136 77.3128C27.6381 78.1071 26.9973 78.7607 26.2152 78.7607H26.2139Z" fill="#1976d2" stroke="#1976d2" stroke-width="1.35185"/>
<path d="M32.376 75.3532C31.9388 75.3311 31.5858 74.9671 31.5776 74.5161C31.4459 66.8036 35.8163 62.0117 39.5051 59.3504C39.8839 59.0773 40.4093 59.1656 40.6781 59.5517C40.9469 59.9364 40.8573 60.4701 40.4799 60.7417C37.1197 63.1659 33.1403 67.5179 33.2598 74.4858C33.2679 74.9574 32.8973 75.3463 32.433 75.3532C32.414 75.3545 32.395 75.3545 32.376 75.3532Z" fill="#1976d2" stroke="#1976d2" stroke-width="1.35185"/>
<path d="M1.87381 18.0322C1.78149 18.0336 1.68645 18.0198 1.59413 17.9936C1.07279 17.8405 0.772741 17.289 0.922085 16.7608C3.03191 9.31307 8.2603 3.236 15.2659 0.0850817C15.7614 -0.136931 16.3412 0.0905975 16.5598 0.592538C16.7797 1.09724 16.5557 1.68467 16.0601 1.90807C9.58675 4.81767 4.75615 10.4328 2.80789 17.3124C2.68434 17.7454 2.29741 18.0281 1.87381 18.0322Z" fill="#1976d2" stroke="#1976d2" stroke-width="1.35185"/>
<path d="M12.433 10.4979L10.6395 12.6683L10.1086 13.2985C9.8344 13.2434 9.54386 13.1317 9.23838 12.9869C9.85748 11.2977 7.40417 9.05961 5.67585 10.4124C5.38259 10.0166 5.17894 9.61119 5.06761 9.23198L5.62833 8.55491L7.05389 6.82845L7.62547 6.14862C8.0124 6.20516 8.42921 6.32789 8.86366 6.55266C7.85356 8.52733 10.4494 10.5834 11.9795 9.6691C12.1832 9.94903 12.3312 10.2331 12.433 10.4979Z" fill="#1976d2" stroke="#1976d2" stroke-width="1.35185"/>
<path d="M73.1163 47.315C69.9608 47.315 67.6496 46.4435 66.1826 44.7005C65.6013 44.0257 65.103 43.1683 64.6878 42.1281C64.3003 41.0598 63.982 39.6822 63.7329 37.9954C63.5115 36.3085 63.3454 34.2281 63.2347 31.7541C63.1516 29.252 63.11 26.2157 63.11 22.6453C63.11 21.4926 63.1377 20.5508 63.193 19.8199C63.2484 19.0608 63.3591 18.4704 63.5252 18.0487C63.6913 17.5989 63.8989 17.2897 64.148 17.121C64.4248 16.9523 64.7708 16.868 65.186 16.868C65.9887 16.868 66.5561 17.2334 66.8883 17.9644C67.2204 18.6953 67.3865 19.9604 67.3865 21.7597C67.3865 22.3782 67.3726 22.9265 67.3449 23.4044C67.3449 23.8823 67.3449 24.3743 67.3449 24.8804C67.3449 25.3583 67.331 25.8924 67.3033 26.4828C67.3033 27.0732 67.3033 27.7901 67.3033 28.6335C67.3033 31.4449 67.3863 33.7783 67.5524 35.6338C67.7461 37.4893 68.0645 38.9794 68.5073 40.1039C68.9502 41.2003 69.5453 41.9734 70.2927 42.4233C71.0677 42.8731 72.0226 43.098 73.1575 43.098C74.3477 43.098 75.3304 42.859 76.1054 42.3811C76.9081 41.875 77.5447 41.0457 78.0153 39.893C78.4858 38.7122 78.818 37.1519 79.0118 35.2121C79.2332 33.2723 79.3439 30.8545 79.3439 27.9588C79.3439 26.6937 79.33 25.6113 79.3023 24.7117C79.3023 23.812 79.3023 22.9967 79.3023 22.2658C79.3023 21.2256 79.33 20.354 79.3853 19.6512C79.4684 18.9483 79.5791 18.4001 79.7175 18.0065C79.8836 17.5848 80.105 17.2897 80.3818 17.121C80.6586 16.9523 81.0046 16.868 81.4198 16.868C81.835 16.868 82.181 16.9523 82.4578 17.121C82.7346 17.2897 82.956 17.5848 83.1221 18.0065C83.2882 18.4283 83.3989 19.0186 83.4542 19.7777C83.5096 20.5087 83.5373 21.4645 83.5373 22.6453C83.5373 27.5933 83.385 31.6698 83.0805 34.8747C82.7761 38.0516 82.2363 40.5678 81.4613 42.4233C80.6862 44.2506 79.6206 45.5298 78.2643 46.2608C76.9356 46.9636 75.2195 47.315 73.1158 47.315H73.1163Z" fill="#453B3B"/>
<path d="M88.7413 40.1882C88.6859 39.2886 88.6306 38.0657 88.5752 36.5194C88.5199 34.9732 88.4922 33.3847 88.4922 31.7542C88.4922 30.8264 88.4922 29.8705 88.4922 28.8866C88.52 27.8745 88.5476 26.8483 88.5752 25.8081C88.6306 23.7277 88.7551 22.0971 88.9489 20.9163C89.1703 19.7356 89.5855 18.85 90.1945 18.2596C90.8311 17.6692 91.7169 17.3037 92.8517 17.1631C93.9866 17.0225 95.4952 16.9522 97.3774 16.9522C97.4051 16.9522 97.6957 16.9522 98.2493 16.9522C98.8305 16.9522 99.5225 16.9663 100.325 16.9944C101.128 16.9944 101.958 17.0085 102.816 17.0367C103.702 17.0648 104.436 17.0929 105.017 17.121C105.626 17.1773 106.11 17.2616 106.47 17.3741C106.858 17.4585 107.148 17.585 107.342 17.7536C107.536 17.8942 107.66 18.077 107.716 18.3018C107.771 18.4986 107.799 18.7235 107.799 18.9765C107.799 19.6232 107.619 20.1011 107.259 20.4103C106.899 20.6915 106.166 20.8742 105.059 20.9585C104.505 21.0148 103.688 21.057 102.609 21.0851C101.557 21.0851 100.478 21.0851 99.3703 21.0851C98.2632 21.0851 97.2667 21.0992 96.3809 21.1272C95.4952 21.1272 94.9416 21.1272 94.7202 21.1272C94.0005 21.1553 93.4884 21.324 93.1839 21.6332C92.9071 21.9144 92.7688 22.6031 92.7688 23.6996C92.7688 23.9526 92.7826 24.5711 92.8104 25.5551C92.8657 26.511 92.8934 27.8604 92.8934 29.6035H96.3395C97.8066 29.6035 98.9968 29.6316 99.9102 29.6878C100.851 29.7158 101.571 29.8002 102.069 29.9408C102.595 30.0815 102.955 30.3064 103.149 30.6156C103.343 30.9248 103.439 31.3325 103.439 31.8385C103.439 32.0915 103.412 32.3305 103.356 32.5554C103.329 32.7522 103.218 32.935 103.024 33.1036C102.83 33.2443 102.554 33.3708 102.194 33.4832C101.834 33.5676 101.322 33.6379 100.658 33.6941C99.8549 33.7503 99.0937 33.7925 98.374 33.8207C97.682 33.8207 96.99 33.8207 96.298 33.8207H92.8104C92.8104 34.2424 92.8104 34.7485 92.8104 35.3389C92.8104 35.9292 92.8104 36.5337 92.8104 37.1522C92.8104 37.7707 92.8104 38.3751 92.8104 38.9655C92.8381 39.5559 92.8658 40.0338 92.8934 40.3993C92.9212 40.8491 92.9765 41.2287 93.0595 41.5379C93.1702 41.8472 93.3501 42.1002 93.5992 42.297C93.876 42.4938 94.2635 42.6343 94.7618 42.7187C95.2877 42.8031 95.9797 42.8453 96.8377 42.8453H105.764C106.733 42.8453 107.342 43.028 107.591 43.3935C107.84 43.759 107.965 44.251 107.965 44.8695C107.965 45.3755 107.854 45.7691 107.633 46.0502C107.411 46.3033 106.872 46.486 106.014 46.5985C105.183 46.7391 103.924 46.8234 102.235 46.8515C100.575 46.8796 98.2771 46.8937 95.3431 46.8937C94.0975 46.8937 93.0733 46.7813 92.2706 46.5563C91.4679 46.3315 90.8174 45.9519 90.3192 45.4178C89.821 44.8836 89.4473 44.1948 89.1982 43.3514C88.9767 42.4799 88.8245 41.4256 88.7415 40.1886L88.7413 40.1882Z" fill="#453B3B"/>
<path d="M121.41 16.8257C122.185 16.8257 123.071 16.8961 124.067 17.0367C125.091 17.1491 126.046 17.374 126.932 17.7114C127.818 18.0207 128.565 18.4424 129.174 18.9765C129.783 19.4826 130.088 20.1151 130.088 20.8742C130.088 21.324 129.963 21.7035 129.714 22.0128C129.465 22.322 129.063 22.4767 128.51 22.4767C128.095 22.4767 127.666 22.3923 127.223 22.2236C126.808 22.055 126.323 21.8863 125.77 21.7176C125.244 21.5208 124.621 21.3381 123.901 21.1694C123.209 21.0007 122.393 20.9164 121.452 20.9164C119.625 20.9164 118.268 21.2537 117.383 21.9284C116.525 22.5751 116.095 23.4747 116.095 24.6274C116.095 25.4146 116.289 26.0752 116.677 26.6094C117.064 27.1435 117.576 27.6074 118.213 28.001C118.877 28.3665 119.611 28.6757 120.414 28.9287C121.244 29.1818 122.088 29.4207 122.946 29.6457C123.915 29.8987 124.87 30.2079 125.811 30.5734C126.78 30.9389 127.638 31.4168 128.385 32.0072C129.133 32.5976 129.728 33.3426 130.171 34.2423C130.641 35.1419 130.876 36.2805 130.876 37.6581C130.876 39.0918 130.613 40.3851 130.088 41.5377C129.562 42.6623 128.842 43.6322 127.929 44.4475C127.015 45.2347 125.922 45.8532 124.648 46.303C123.375 46.7247 121.991 46.9356 120.497 46.9356C119.666 46.9356 118.697 46.8512 117.59 46.6825C116.483 46.5419 115.431 46.2889 114.435 45.9235C113.438 45.5299 112.594 45.0238 111.902 44.4053C111.21 43.7587 110.864 42.9715 110.864 42.0438C110.864 41.4815 111.002 41.0317 111.279 40.6943C111.584 40.357 112.027 40.1883 112.608 40.1883C113.078 40.1883 113.466 40.2867 113.77 40.4835C114.075 40.6521 114.338 40.849 114.559 41.0739C115.39 41.8048 116.331 42.2968 117.383 42.5498C118.434 42.8028 119.514 42.9294 120.621 42.9294C121.258 42.9294 121.922 42.8872 122.614 42.8028C123.334 42.6903 123.984 42.4795 124.565 42.1702C125.147 41.861 125.631 41.4252 126.019 40.8629C126.406 40.2725 126.6 39.4853 126.6 38.5014C126.6 37.6017 126.42 36.8708 126.06 36.3085C125.728 35.7181 125.271 35.2261 124.69 34.8325C124.109 34.439 123.417 34.1156 122.614 33.8626C121.839 33.6096 120.995 33.3566 120.081 33.1036C119.057 32.8224 118.047 32.5132 117.05 32.1758C116.054 31.8384 115.168 31.3886 114.393 30.8263C113.618 30.236 112.982 29.505 112.483 28.6335C112.013 27.7339 111.777 26.5952 111.777 25.2177C111.777 23.8401 112.027 22.6312 112.525 21.591C113.023 20.5508 113.701 19.6793 114.559 18.9765C115.417 18.2736 116.428 17.7395 117.59 17.374C118.78 17.0085 120.054 16.8257 121.41 16.8257V16.8257Z" fill="#453B3B"/>
<path d="M151.596 20.9585C150.821 21.0147 149.991 21.0569 149.105 21.0851C148.247 21.1131 147.292 21.1412 146.24 21.1694C146.268 21.9285 146.295 22.6454 146.323 23.3201C146.351 23.9668 146.378 24.6274 146.406 25.3022C146.434 25.9769 146.447 26.6797 146.447 27.4107C146.475 28.1416 146.489 28.9569 146.489 29.8565C146.489 31.1217 146.489 32.3446 146.489 33.5254C146.489 34.6781 146.475 35.8448 146.447 37.0256C146.42 38.1782 146.392 39.3449 146.364 40.5257C146.337 41.7065 146.295 42.9294 146.24 44.1945C146.212 44.8693 146.143 45.3894 146.032 45.7548C145.949 46.1203 145.824 46.4014 145.658 46.5982C145.492 46.795 145.299 46.9075 145.077 46.9356C144.856 46.9919 144.607 47.02 144.33 47.02C143.831 47.02 143.402 46.8513 143.043 46.5139C142.71 46.1484 142.517 45.3894 142.461 44.2367C142.406 43.2246 142.364 42.1563 142.337 41.0317C142.337 39.9072 142.323 38.6983 142.295 37.4051C142.268 36.1119 142.254 34.7202 142.254 33.2302C142.254 31.7121 142.254 30.0393 142.254 28.2119C142.254 26.6657 142.254 25.3162 142.254 24.1636C142.281 23.0109 142.323 22.0129 142.378 21.1695H140.676C139.514 21.1695 138.517 21.1554 137.687 21.1273C136.884 21.0992 136.22 21.0289 135.694 20.9163C135.168 20.7757 134.78 20.5648 134.531 20.2838C134.31 20.0026 134.199 19.609 134.199 19.103C134.199 18.85 134.227 18.625 134.282 18.4283C134.337 18.2033 134.462 18.0065 134.656 17.8379C134.85 17.6411 135.112 17.4865 135.445 17.374C135.804 17.2616 136.261 17.1772 136.815 17.121C137.341 17.0929 137.811 17.0648 138.226 17.0366C138.642 17.0084 139.057 16.9803 139.472 16.9522C139.887 16.9242 140.316 16.9102 140.759 16.9102C141.202 16.9102 141.714 16.9102 142.295 16.9102C143.928 16.9102 145.465 16.9242 146.904 16.9522C148.371 16.9804 149.921 17.0366 151.554 17.1209C152.219 17.1771 152.731 17.2615 153.09 17.3739C153.45 17.4583 153.727 17.5849 153.921 17.7535C154.115 17.9222 154.225 18.119 154.253 18.3439C154.308 18.5688 154.336 18.8218 154.336 19.1029C154.336 19.609 154.156 20.0307 153.796 20.368C153.464 20.7054 152.731 20.9022 151.596 20.9584L151.596 20.9585Z" fill="#453B3B"/>
<path d="M157.508 40.1882C157.453 39.2886 157.397 38.0657 157.342 36.5194C157.287 34.9732 157.259 33.3847 157.259 31.7542C157.259 30.8264 157.259 29.8705 157.259 28.8866C157.287 27.8745 157.314 26.8483 157.342 25.8081C157.397 23.7277 157.522 22.0971 157.716 20.9163C157.937 19.7356 158.352 18.85 158.961 18.2596C159.598 17.6692 160.484 17.3037 161.618 17.1631C162.753 17.0225 164.262 16.9522 166.144 16.9522C166.172 16.9522 166.462 16.9522 167.016 16.9522C167.597 16.9522 168.289 16.9663 169.092 16.9944C169.895 16.9944 170.725 17.0085 171.583 17.0367C172.469 17.0648 173.202 17.0929 173.784 17.121C174.393 17.1773 174.877 17.2616 175.237 17.3741C175.624 17.4585 175.915 17.585 176.109 17.7536C176.302 17.8942 176.427 18.077 176.482 18.3018C176.538 18.4986 176.565 18.7235 176.565 18.9765C176.565 19.6232 176.386 20.1011 176.026 20.4103C175.666 20.6915 174.932 20.8742 173.825 20.9585C173.272 21.0148 172.455 21.057 171.375 21.0851C170.324 21.0851 169.244 21.0851 168.137 21.0851C167.03 21.0851 166.033 21.0992 165.148 21.1272C164.262 21.1272 163.708 21.1272 163.487 21.1272C162.767 21.1553 162.255 21.324 161.951 21.6332C161.674 21.9144 161.535 22.6031 161.535 23.6996C161.535 23.9526 161.549 24.5711 161.577 25.5551C161.632 26.511 161.66 27.8604 161.66 29.6035H165.106C166.573 29.6035 167.763 29.6316 168.677 29.6878C169.618 29.7158 170.337 29.8002 170.836 29.9408C171.362 30.0815 171.721 30.3064 171.915 30.6156C172.109 30.9248 172.206 31.3325 172.206 31.8385C172.206 32.0915 172.178 32.3305 172.123 32.5554C172.095 32.7522 171.984 32.935 171.791 33.1036C171.597 33.2443 171.32 33.3708 170.96 33.4832C170.6 33.5676 170.088 33.6379 169.424 33.6941C168.621 33.7503 167.86 33.7925 167.14 33.8207C166.448 33.8207 165.756 33.8207 165.064 33.8207H161.577C161.577 34.2424 161.577 34.7485 161.577 35.3389C161.577 35.9292 161.577 36.5337 161.577 37.1522C161.577 37.7707 161.577 38.3751 161.577 38.9655C161.605 39.5559 161.632 40.0338 161.66 40.3993C161.688 40.8491 161.743 41.2287 161.826 41.5379C161.937 41.8472 162.117 42.1002 162.366 42.297C162.642 42.4938 163.03 42.6343 163.528 42.7187C164.054 42.8031 164.746 42.8453 165.604 42.8453H174.531C175.5 42.8453 176.109 43.028 176.358 43.3935C176.607 43.759 176.731 44.251 176.731 44.8695C176.731 45.3755 176.621 45.7691 176.399 46.0502C176.178 46.3033 175.638 46.486 174.78 46.5985C173.95 46.7391 172.69 46.8234 171.002 46.8515C169.341 46.8796 167.044 46.8937 164.109 46.8937C162.864 46.8937 161.84 46.7813 161.037 46.5563C160.234 46.3315 159.584 45.9519 159.086 45.4178C158.587 44.8836 158.214 44.1948 157.965 43.3514C157.743 42.4799 157.591 41.4256 157.508 40.1886L157.508 40.1882Z" fill="#1976d2"/>
<path d="M188.963 16.7836C191.814 16.7836 194.097 17.2194 195.814 18.0909C197.53 18.9624 198.845 20.1151 199.758 21.5489C200.671 22.9827 201.266 24.6133 201.543 26.4407C201.848 28.2681 202 30.1236 202 32.0072C202 34.0595 201.737 35.9993 201.211 37.8267C200.713 39.6541 199.924 41.2566 198.845 42.6341C197.793 43.9836 196.436 45.066 194.776 45.8813C193.115 46.6685 191.136 47.062 188.838 47.062C187.011 47.062 185.544 46.9215 184.437 46.6403C183.358 46.3873 182.514 45.9937 181.905 45.4596C181.323 44.9254 180.936 44.2507 180.742 43.4354C180.548 42.6201 180.451 41.6642 180.451 40.5678V24.7117C180.451 23.5028 180.548 22.4063 180.742 21.4224C180.963 20.4384 181.379 19.6091 181.988 18.9343C182.597 18.2315 183.455 17.6973 184.562 17.3319C185.697 16.9664 187.164 16.7836 188.963 16.7836V16.7836ZM189.129 42.845C190.845 42.845 192.257 42.5358 193.364 41.9173C194.499 41.2706 195.398 40.4272 196.063 39.387C196.727 38.3468 197.184 37.166 197.433 35.8447C197.71 34.5233 197.848 33.1739 197.848 31.7963C197.848 30.5312 197.751 29.2661 197.557 28.001C197.364 26.7077 196.962 25.541 196.353 24.5009C195.744 23.4606 194.872 22.6172 193.738 21.9706C192.603 21.324 191.094 21.0007 189.212 21.0007C187.496 21.0007 186.306 21.2537 185.641 21.7597C184.977 22.2658 184.645 23.0389 184.645 24.0791V40.2304C184.645 41.102 184.949 41.7626 185.558 42.2124C186.195 42.6342 187.385 42.845 189.129 42.845V42.845Z" fill="#1976d2"/>
<path d="M70.7581 70.2003C70.7581 69.611 70.6656 69.091 70.4807 68.6403C70.3074 68.1781 69.9954 67.7621 69.5447 67.3923C69.1056 67.0225 68.4932 66.6701 67.7074 66.335C66.9332 65.9999 65.951 65.659 64.7607 65.3123C63.5127 64.9425 62.3861 64.5323 61.3807 64.0816C60.3754 63.6194 59.5145 63.0936 58.7981 62.5043C58.0816 61.915 57.5327 61.239 57.1514 60.4763C56.7701 59.7136 56.5794 58.8412 56.5794 57.859C56.5794 56.8768 56.7816 55.9696 57.1861 55.1376C57.5905 54.3056 58.1683 53.5834 58.9194 52.971C59.6821 52.347 60.5892 51.8617 61.6407 51.515C62.6923 51.1683 63.8652 50.995 65.1594 50.995C67.0545 50.995 68.6607 51.359 69.9781 52.087C71.307 52.8034 72.3181 53.7452 73.0114 54.9123C73.7047 56.0679 74.0514 57.3043 74.0514 58.6216H70.7234C70.7234 57.6741 70.5212 56.8363 70.1167 56.1083C69.7123 55.3688 69.0999 54.791 68.2794 54.375C67.459 53.9474 66.419 53.7336 65.1594 53.7336C63.9692 53.7336 62.987 53.9128 62.2127 54.271C61.4385 54.6292 60.8607 55.1145 60.4794 55.727C60.1096 56.3394 59.9247 57.0385 59.9247 57.8243C59.9247 58.3559 60.0345 58.8412 60.2541 59.2803C60.4852 59.7079 60.8376 60.1065 61.3114 60.4763C61.7967 60.8461 62.4092 61.187 63.1487 61.499C63.8999 61.811 64.7954 62.1114 65.8354 62.4003C67.2683 62.8048 68.5047 63.2554 69.5447 63.7523C70.5847 64.2492 71.4399 64.8096 72.1101 65.4336C72.7919 66.0461 73.2945 66.7452 73.6181 67.531C73.9532 68.3052 74.1207 69.1834 74.1207 70.1656C74.1207 71.1941 73.9127 72.1243 73.4967 72.9563C73.0807 73.7883 72.4856 74.499 71.7114 75.0883C70.9372 75.6776 70.007 76.1341 68.9207 76.4576C67.8461 76.7696 66.6443 76.9256 65.3154 76.9256C64.1483 76.9256 62.9985 76.7639 61.8661 76.4403C60.7452 76.1168 59.7225 75.6314 58.7981 74.9843C57.8852 74.3372 57.1514 73.5399 56.5967 72.5923C56.0536 71.6332 55.7821 70.5239 55.7821 69.2643H59.1101C59.1101 70.131 59.2776 70.8763 59.6127 71.5003C59.9479 72.1128 60.4043 72.6212 60.9821 73.0256C61.5714 73.4301 62.2359 73.7305 62.9754 73.927C63.7265 74.1119 64.5065 74.2043 65.3154 74.2043C66.4825 74.2043 67.4705 74.0425 68.2794 73.719C69.0883 73.3954 69.7007 72.9332 70.1167 72.3323C70.5443 71.7314 70.7581 71.0208 70.7581 70.2003ZM93.6207 68.5536H96.9487C96.7754 70.1483 96.319 71.5754 95.5794 72.835C94.8399 74.0945 93.7941 75.0941 92.4421 75.8336C91.0901 76.5616 89.403 76.9256 87.3807 76.9256C85.9016 76.9256 84.5554 76.6483 83.3421 76.0936C82.1403 75.539 81.1061 74.7532 80.2394 73.7363C79.3727 72.7079 78.7025 71.4772 78.2287 70.0443C77.7665 68.5999 77.5354 66.9936 77.5354 65.2256V62.7123C77.5354 60.9443 77.7665 59.3439 78.2287 57.911C78.7025 56.4665 79.3785 55.2301 80.2567 54.2016C81.1465 53.1732 82.2154 52.3816 83.4634 51.827C84.7114 51.2723 86.1154 50.995 87.6754 50.995C89.5821 50.995 91.1941 51.3532 92.5114 52.0697C93.8287 52.7861 94.8514 53.7799 95.5794 55.051C96.319 56.3105 96.7754 57.7723 96.9487 59.4363H93.6207C93.459 58.2576 93.1585 57.2465 92.7194 56.403C92.2803 55.5479 91.6563 54.8892 90.8474 54.427C90.0385 53.9648 88.9812 53.7336 87.6754 53.7336C86.5545 53.7336 85.5665 53.9474 84.7114 54.375C83.8679 54.8025 83.1572 55.4092 82.5794 56.195C82.0132 56.9808 81.5856 57.9225 81.2967 59.0203C81.0079 60.1181 80.8634 61.3372 80.8634 62.6776V65.2256C80.8634 66.4621 80.9905 67.6234 81.2447 68.7096C81.5105 69.7959 81.9092 70.7492 82.4407 71.5696C82.9723 72.3901 83.6483 73.0372 84.4687 73.511C85.2892 73.9732 86.2599 74.2043 87.3807 74.2043C88.8021 74.2043 89.9345 73.979 90.7781 73.5283C91.6216 73.0776 92.2572 72.4305 92.6847 71.587C93.1239 70.7434 93.4359 69.7323 93.6207 68.5536ZM117.991 62.1923V64.9136H104.333V62.1923H117.991ZM104.853 51.3417V76.579H101.507V51.3417H104.853ZM120.903 51.3417V76.579H117.575V51.3417H120.903ZM146.279 63.163V64.7576C146.279 66.6528 146.043 68.3514 145.569 69.8536C145.095 71.3559 144.413 72.6328 143.523 73.6843C142.634 74.7359 141.565 75.539 140.317 76.0936C139.08 76.6483 137.694 76.9256 136.157 76.9256C134.666 76.9256 133.297 76.6483 132.049 76.0936C130.812 75.539 129.738 74.7359 128.825 73.6843C127.923 72.6328 127.224 71.3559 126.727 69.8536C126.231 68.3514 125.982 66.6528 125.982 64.7576V63.163C125.982 61.2679 126.225 59.575 126.71 58.0843C127.207 56.5821 127.906 55.3052 128.807 54.2536C129.709 53.1905 130.778 52.3816 132.014 51.827C133.262 51.2723 134.631 50.995 136.122 50.995C137.659 50.995 139.046 51.2723 140.282 51.827C141.53 52.3816 142.599 53.1905 143.489 54.2536C144.39 55.3052 145.078 56.5821 145.551 58.0843C146.037 59.575 146.279 61.2679 146.279 63.163ZM142.969 64.7576V63.1283C142.969 61.6261 142.813 60.2972 142.501 59.1416C142.2 57.9861 141.755 57.0154 141.166 56.2296C140.577 55.4439 139.855 54.8488 138.999 54.4443C138.156 54.0399 137.197 53.8376 136.122 53.8376C135.082 53.8376 134.14 54.0399 133.297 54.4443C132.465 54.8488 131.748 55.4439 131.147 56.2296C130.558 57.0154 130.102 57.9861 129.778 59.1416C129.455 60.2972 129.293 61.6261 129.293 63.1283V64.7576C129.293 66.2714 129.455 67.6119 129.778 68.779C130.102 69.9345 130.564 70.911 131.165 71.7083C131.777 72.4941 132.499 73.0892 133.331 73.4936C134.175 73.8981 135.117 74.1003 136.157 74.1003C137.243 74.1003 138.208 73.8981 139.051 73.4936C139.895 73.0892 140.606 72.4941 141.183 71.7083C141.773 70.911 142.218 69.9345 142.518 68.779C142.819 67.6119 142.969 66.2714 142.969 64.7576ZM170.719 63.163V64.7576C170.719 66.6528 170.483 68.3514 170.009 69.8536C169.535 71.3559 168.853 72.6328 167.963 73.6843C167.074 74.7359 166.005 75.539 164.757 76.0936C163.52 76.6483 162.134 76.9256 160.597 76.9256C159.106 76.9256 157.737 76.6483 156.489 76.0936C155.252 75.539 154.178 74.7359 153.265 73.6843C152.363 72.6328 151.664 71.3559 151.167 69.8536C150.671 68.3514 150.422 66.6528 150.422 64.7576V63.163C150.422 61.2679 150.665 59.575 151.15 58.0843C151.647 56.5821 152.346 55.3052 153.247 54.2536C154.149 53.1905 155.218 52.3816 156.454 51.827C157.702 51.2723 159.071 50.995 160.562 50.995C162.099 50.995 163.486 51.2723 164.722 51.827C165.97 52.3816 167.039 53.1905 167.929 54.2536C168.83 55.3052 169.518 56.5821 169.991 58.0843C170.477 59.575 170.719 61.2679 170.719 63.163ZM167.409 64.7576V63.1283C167.409 61.6261 167.253 60.2972 166.941 59.1416C166.64 57.9861 166.195 57.0154 165.606 56.2296C165.017 55.4439 164.295 54.8488 163.439 54.4443C162.596 54.0399 161.637 53.8376 160.562 53.8376C159.522 53.8376 158.58 54.0399 157.737 54.4443C156.905 54.8488 156.188 55.4439 155.587 56.2296C154.998 57.0154 154.542 57.9861 154.218 59.1416C153.895 60.2972 153.733 61.6261 153.733 63.1283V64.7576C153.733 66.2714 153.895 67.6119 154.218 68.779C154.542 69.9345 155.004 70.911 155.605 71.7083C156.217 72.4941 156.939 73.0892 157.771 73.4936C158.615 73.8981 159.557 74.1003 160.597 74.1003C161.683 74.1003 162.648 73.8981 163.491 73.4936C164.335 73.0892 165.046 72.4941 165.623 71.7083C166.213 70.911 166.658 69.9345 166.958 68.779C167.259 67.6119 167.409 66.2714 167.409 64.7576ZM191.034 73.8576V76.579H178.415V73.8576H191.034ZM179.074 51.3417V76.579H175.729V51.3417H179.074Z" fill="#453B3B"/>
</svg>
