<svg width="500" height="300" viewBox="0 0 500 300" fill="none" xmlns="http://www.w3.org/2000/svg">
<g clip-path="url(#clip0_101_58)">
<path d="M251.604 300C387.184 300 497.092 291.972 497.092 282.068C497.092 272.164 387.184 264.136 251.604 264.136C116.025 264.136 6.1167 272.164 6.1167 282.068C6.1167 291.972 116.025 300 251.604 300Z" fill="#F2F2F2"/>
<path d="M242.195 85.7587C202.199 85.7587 173.482 114.073 173.482 180.138C173.482 255.012 202.199 274.832 242.195 274.832C282.192 274.832 312.62 253.125 312.62 180.138C312.62 102.118 282.192 85.7587 242.195 85.7587ZM242.458 249.979C214.756 249.979 200.283 232.046 200.283 180.187C200.283 134.428 215.348 110.297 243.051 110.297C270.753 110.297 285.819 126.148 285.819 180.187C285.819 230.739 270.161 249.979 242.458 249.979Z" fill="#2F2E41"/>
<path d="M149.532 222.609H132.995V168.877C132.995 166.023 131.967 163.286 130.138 161.268C128.309 159.25 125.829 158.116 123.242 158.116H119.367C118.087 158.116 116.819 158.395 115.635 158.935C114.452 159.476 113.377 160.269 112.471 161.268C111.566 162.267 110.847 163.454 110.357 164.759C109.867 166.065 109.615 167.464 109.615 168.877V222.609H62.97C62.0104 222.609 61.0671 222.335 60.2316 221.814C59.3961 221.294 58.6968 220.543 58.2015 219.637C57.7062 218.73 57.4317 217.697 57.4047 216.639C57.3777 215.58 57.5991 214.532 58.0474 213.596L107.416 110.496C108.031 109.211 108.404 107.801 108.513 106.352C108.621 104.903 108.462 103.445 108.045 102.066C107.628 100.687 106.963 99.4154 106.088 98.3279C105.214 97.2404 104.149 96.3597 102.957 95.7389L100.043 94.2204C97.7801 93.0413 95.193 92.8672 92.8169 93.7341C90.4409 94.601 88.4578 96.4426 87.278 98.8778L27.0666 223.16C26.0412 225.277 25.5048 227.64 25.5048 230.039V230.039C25.5048 231.955 25.8469 233.853 26.5114 235.623C27.176 237.394 28.1501 239.002 29.3781 240.357C30.6061 241.712 32.0639 242.787 33.6683 243.52C35.2727 244.253 36.9923 244.631 38.729 244.631H109.615V278.607C109.615 280.301 109.917 281.978 110.505 283.543C111.092 285.108 111.953 286.53 113.039 287.728C114.124 288.926 115.413 289.876 116.831 290.524C118.25 291.172 119.77 291.506 121.305 291.506H121.305C122.84 291.506 124.36 291.172 125.778 290.524C127.197 289.876 128.485 288.926 129.571 287.728C130.656 286.53 131.517 285.108 132.105 283.543C132.692 281.978 132.995 280.301 132.995 278.607V244.631H149.532C152.178 244.631 154.717 243.471 156.588 241.406C158.459 239.341 159.511 236.54 159.511 233.62V233.62C159.511 230.7 158.459 227.899 156.588 225.834C154.717 223.769 152.178 222.609 149.532 222.609V222.609Z" fill="#1976D2"/>
<path d="M455.75 222.609H439.213V168.877C439.213 166.023 438.185 163.286 436.356 161.268C434.527 159.25 432.047 158.116 429.46 158.116H425.585C424.305 158.116 423.037 158.395 421.853 158.935C420.67 159.476 419.595 160.269 418.69 161.268C417.784 162.267 417.066 163.454 416.575 164.759C416.085 166.065 415.833 167.464 415.833 168.877V222.609H369.188C368.228 222.609 367.285 222.335 366.45 221.814C365.614 221.294 364.915 220.543 364.42 219.637C363.924 218.73 363.65 217.697 363.623 216.639C363.596 215.58 363.817 214.532 364.265 213.596L413.634 110.496C414.25 109.211 414.623 107.801 414.731 106.352C414.839 104.903 414.68 103.445 414.263 102.066C413.846 100.687 413.181 99.4154 412.306 98.3279C411.432 97.2404 410.367 96.3597 409.176 95.7389L406.261 94.2204C403.998 93.0413 401.411 92.8672 399.035 93.7341C396.659 94.601 394.676 96.4426 393.496 98.8778L333.285 223.16C332.259 225.277 331.723 227.64 331.723 230.039V230.039C331.723 233.909 333.116 237.621 335.596 240.357C338.076 243.093 341.44 244.631 344.947 244.631H415.833V278.607C415.833 282.028 417.065 285.309 419.257 287.728C421.449 290.147 424.423 291.506 427.523 291.506V291.506C430.623 291.506 433.597 290.147 435.789 287.728C437.981 285.309 439.213 282.028 439.213 278.607V244.631H455.75C458.396 244.631 460.935 243.471 462.806 241.406C464.678 239.341 465.729 236.54 465.729 233.62V233.62C465.729 230.7 464.678 227.899 462.806 225.834C460.935 223.769 458.396 222.609 455.75 222.609Z" fill="#1976D2"/>
<path d="M154.094 216.317H137.557V162.585C137.557 161.172 137.304 159.773 136.814 158.467C136.324 157.162 135.606 155.975 134.7 154.976C133.795 153.977 132.72 153.184 131.536 152.643C130.353 152.103 129.085 151.824 127.804 151.824H123.929C121.343 151.824 118.862 152.958 117.033 154.976C115.204 156.994 114.177 159.731 114.177 162.585V216.317H67.5319C66.5723 216.317 65.629 216.043 64.7935 215.522C63.958 215.002 63.2587 214.251 62.7634 213.345C62.2681 212.438 61.9936 211.405 61.9666 210.347C61.9396 209.288 62.161 208.24 62.6093 207.304L111.978 104.204C112.593 102.919 112.966 101.509 113.074 100.06C113.183 98.6114 113.024 97.1534 112.607 95.7743C112.19 94.3951 111.525 93.1234 110.65 92.0359C109.776 90.9484 108.711 90.0677 107.519 89.447L104.605 87.9285C102.342 86.7494 99.7549 86.5753 97.3788 87.4422C95.0028 88.3091 93.0197 90.1506 91.8399 92.5859L31.6285 216.869C30.6031 218.985 30.0667 221.348 30.0667 223.747V223.747C30.0667 227.617 31.46 231.329 33.94 234.065C36.42 236.801 39.7836 238.339 43.2909 238.339H114.177V272.315C114.177 274.009 114.479 275.686 115.067 277.251C115.654 278.816 116.515 280.238 117.601 281.436C118.686 282.634 119.975 283.584 121.393 284.232C122.812 284.88 124.332 285.214 125.867 285.214H125.867C128.967 285.214 131.94 283.855 134.133 281.436C136.325 279.017 137.557 275.736 137.557 272.315V238.339H154.094C155.404 238.339 156.702 238.054 157.912 237.501C159.123 236.947 160.223 236.136 161.15 235.114C162.077 234.091 162.812 232.877 163.313 231.542C163.815 230.206 164.073 228.774 164.073 227.328V227.328C164.073 225.882 163.815 224.45 163.313 223.114C162.812 221.778 162.077 220.564 161.15 219.542C160.223 218.52 159.123 217.708 157.912 217.155C156.702 216.602 155.404 216.317 154.094 216.317V216.317Z" stroke="#3F3D56" stroke-miterlimit="10"/>
<path d="M464.303 216.317H447.766V162.585C447.766 159.731 446.739 156.994 444.91 154.976C443.081 152.958 440.601 151.824 438.014 151.824H434.139C432.858 151.824 431.59 152.103 430.407 152.643C429.224 153.184 428.149 153.977 427.243 154.976C426.337 155.975 425.619 157.162 425.129 158.467C424.639 159.773 424.387 161.172 424.387 162.585V216.317H377.742C376.782 216.317 375.839 216.043 375.003 215.522C374.168 215.002 373.468 214.251 372.973 213.345C372.478 212.438 372.203 211.405 372.176 210.347C372.149 209.288 372.371 208.24 372.819 207.304L422.188 104.204C422.803 102.919 423.176 101.509 423.284 100.06C423.392 98.6114 423.233 97.1534 422.817 95.7743C422.4 94.3951 421.734 93.1234 420.86 92.0359C419.986 90.9484 418.92 90.0677 417.729 89.447L414.815 87.9285C412.552 86.7494 409.965 86.5753 407.589 87.4422C405.213 88.3091 403.229 90.1506 402.05 92.5859L341.838 216.869C340.813 218.985 340.276 221.348 340.276 223.747C340.276 227.617 341.67 231.329 344.15 234.065C346.63 236.801 349.993 238.339 353.501 238.339H424.387V272.315C424.387 275.736 425.618 279.017 427.811 281.436C430.003 283.855 432.976 285.214 436.077 285.214V285.214C439.177 285.214 442.15 283.855 444.343 281.436C446.535 279.017 447.766 275.736 447.766 272.315V238.339H464.303C465.614 238.339 466.911 238.054 468.122 237.501C469.333 236.947 470.433 236.136 471.36 235.114C472.286 234.091 473.021 232.877 473.523 231.542C474.024 230.206 474.282 228.774 474.282 227.328V227.328C474.282 224.408 473.231 221.607 471.36 219.542C469.488 217.477 466.95 216.317 464.303 216.317V216.317Z" stroke="#3F3D56" stroke-miterlimit="10"/>
<path d="M251.319 80.096C211.323 80.096 182.606 108.41 182.606 174.475C182.606 249.35 211.323 269.169 251.319 269.169C291.316 269.169 321.744 247.462 321.744 174.475C321.744 96.4551 291.316 80.096 251.319 80.096ZM251.582 244.316C223.88 244.316 209.407 226.383 209.407 174.524C209.407 128.765 224.472 104.635 252.175 104.635C279.877 104.635 294.943 120.485 294.943 174.524C294.943 225.076 279.285 244.316 251.582 244.316V244.316Z" stroke="#3F3D56" stroke-miterlimit="10"/>
<path d="M219.259 15.9962C222.575 15.9962 225.263 13.0302 225.263 9.37152C225.263 5.7128 222.575 2.74682 219.259 2.74682C215.943 2.74682 213.255 5.7128 213.255 9.37152C213.255 13.0302 215.943 15.9962 219.259 15.9962Z" fill="#2F2E41"/>
<path d="M233.903 48.1502C243.204 48.1502 250.743 37.3714 250.743 24.0751C250.743 10.7788 243.204 0 233.903 0C224.603 0 217.063 10.7788 217.063 24.0751C217.063 37.3714 224.603 48.1502 233.903 48.1502Z" fill="#2F2E41"/>
<path opacity="0.1" d="M233.903 40.8792C225.467 40.8792 218.48 32.0109 217.254 20.4396C217.126 21.6463 217.063 22.8602 217.063 24.0751C217.063 37.3714 224.603 48.1502 233.903 48.1502C243.204 48.1502 250.744 37.3714 250.744 24.0751C250.744 22.8602 250.68 21.6463 250.552 20.4396C249.326 32.0109 242.339 40.8792 233.903 40.8792Z" fill="black"/>
<path d="M268.171 94.5801C267.81 96.2199 266.25 97.5332 264.523 98.4508C260.892 100.38 256.414 100.956 252.07 101.149C250.962 101.223 249.85 101.2 248.745 101.081C246.604 100.852 244.595 99.8336 243.044 98.1893C242.933 98.1096 242.842 98.0003 242.78 97.8716C242.718 97.7428 242.687 97.5988 242.689 97.4529C242.691 97.3071 242.726 97.1642 242.792 97.0376C242.858 96.911 242.951 96.8048 243.064 96.729C245.377 93.9259 249.236 92.2071 253.124 90.9696C256.072 90.0312 261.213 87.6006 264.428 87.9286C267.542 88.2463 268.628 92.5096 268.171 94.5801Z" fill="#3F3D56"/>
<path opacity="0.1" d="M268.171 94.5801C267.81 96.2199 266.25 97.5332 264.523 98.4508C260.892 100.38 256.414 100.956 252.07 101.149C250.962 101.223 249.85 101.2 248.745 101.081C246.604 100.852 244.595 99.8336 243.044 98.1893C242.933 98.1096 242.842 98.0003 242.78 97.8716C242.718 97.7428 242.687 97.5988 242.689 97.4529C242.691 97.3071 242.726 97.1642 242.792 97.0376C242.858 96.911 242.951 96.8048 243.064 96.729C245.377 93.9259 249.236 92.2071 253.124 90.9696C256.072 90.0312 261.213 87.6006 264.428 87.9286C267.542 88.2463 268.628 92.5096 268.171 94.5801Z" fill="black"/>
<path d="M222.006 82.3243C220.898 84.7211 220.697 87.5053 221.449 90.0651C222.213 92.6057 223.643 94.839 225.558 96.4822C230.255 100.637 236.721 101.209 242.742 101.151C248.018 101.101 253.287 100.702 258.52 99.958C260.274 99.7865 261.997 99.345 263.64 98.6463C265.605 97.7083 267.332 95.9877 268.032 93.7549C268.731 91.5222 268.235 88.7882 266.573 87.2981C265.113 85.9888 263.1 85.8088 261.222 85.6842L250.478 84.9718C251.539 83.7864 252.953 83.116 254.245 82.2543C255.96 81.111 257.1 79.1915 258.347 77.461C260.268 74.9272 262.359 72.5556 264.601 70.366C264.951 72.5794 266.22 74.3969 267.713 75.9241C269.207 77.4513 270.928 78.6807 272.48 80.1348C276.24 83.6565 278.947 88.4364 282.901 91.6887C285.621 90.9001 288.164 89.4993 290.37 87.5744L288.833 84.503C288.705 84.1869 288.506 83.9124 288.254 83.7056C287.819 83.4104 287.258 83.5625 286.753 83.479C285.403 83.2556 284.814 81.5359 284.284 80.1477C282.83 76.3367 280.045 73.3799 277.667 70.184C275.912 67.8248 274.355 65.2943 273.015 62.6238C272.216 61.0312 271.485 59.3729 270.401 58.0007C269.317 56.6286 267.798 55.5498 266.148 55.546C264.69 55.5426 263.346 56.3591 262.093 57.1805C258.276 59.6823 254.603 62.4431 251.096 65.4472C249.26 67.0194 247.436 68.6804 245.283 69.6445C244.377 70.0503 243.422 70.3277 242.552 70.8215C241.029 71.6865 239.873 73.1499 238.628 74.4489C234.19 79.0823 228.113 82.0843 222.006 82.3243Z" fill="#3F3D56"/>
<path d="M244.473 49.3459C244.423 50.7622 244.15 52.1581 243.666 53.471C243.421 54.1258 243.056 54.7178 242.594 55.2102C242.132 55.7025 241.583 56.0846 240.982 56.3325C240.128 56.585 239.232 56.6171 238.365 56.4262C237.609 56.3391 236.88 56.0652 236.233 55.6248C235.225 54.8605 234.723 53.4968 234.54 52.1622C234.357 50.8292 234.439 49.4671 234.322 48.1244C234.208 47.0398 234.021 45.9662 233.763 44.9122C233.683 44.5616 233.603 44.2126 233.524 43.8636C233.446 43.5146 233.37 43.1655 233.3 42.8165C233.235 42.4885 233.175 42.1589 233.124 41.8277C233.082 41.5482 233.044 41.267 233.016 40.9842C232.99 40.146 232.864 39.3152 232.639 38.5137C232.429 37.9939 232.166 37.5023 231.854 37.0482C231.721 36.8382 231.592 36.6281 231.474 36.41C231.131 35.8431 230.971 35.165 231.021 34.4856C231.035 34.3805 231.058 34.2772 231.09 34.177C231.102 34.1382 231.115 34.0994 231.13 34.0623C231.261 34.0228 231.382 33.9484 231.482 33.8457C231.582 33.7429 231.657 33.6148 231.702 33.4725C231.753 33.1668 231.729 32.8518 231.633 32.5596C231.524 32.1511 231.374 31.7572 231.187 31.3849C231.064 31.1393 230.646 30.6966 230.643 30.4154C230.638 29.8499 231.639 29.3942 232.045 29.1712C233.283 28.4871 234.664 28.1782 236.046 28.2761C236.931 28.3423 237.892 28.6429 238.381 29.4621C238.821 30.2005 238.762 31.157 238.949 32.015C238.969 32.1397 239.017 32.257 239.089 32.3559C239.184 32.452 239.304 32.513 239.433 32.5304C239.65 32.5781 239.872 32.5879 240.092 32.5595H240.093C240.151 32.5545 240.209 32.5453 240.266 32.5321C240.608 32.4624 240.931 32.3083 241.212 32.0813C241.393 32.0279 241.576 31.9843 241.761 31.9504C241.768 31.9495 241.776 31.9479 241.783 31.9455C242.517 34.5001 242.612 37.2388 243.212 39.8402C243.509 41.1345 243.936 42.4126 243.996 43.744C244 43.8021 244.001 43.8619 244.003 43.9217C244.012 44.3499 243.981 44.7813 243.997 45.2079C244.003 45.3999 244.022 45.5912 244.056 45.7798C244.121 46.0832 244.203 46.3821 244.3 46.675L244.305 46.6895C244.332 46.7832 244.359 46.8786 244.381 46.9739C244.397 47.0434 244.412 47.1112 244.423 47.1807L244.425 47.1856C244.533 47.8996 244.549 48.6269 244.473 49.3459V49.3459Z" fill="#FBBEBE"/>
<path d="M234.196 32.6387C238.968 32.6387 242.836 28.3706 242.836 23.1056C242.836 17.8407 238.968 13.5725 234.196 13.5725C229.424 13.5725 225.556 17.8407 225.556 23.1056C225.556 28.3706 229.424 32.6387 234.196 32.6387Z" fill="#FBBEBE"/>
<path d="M289.049 75.0465C288.798 72.4456 287.96 69.9556 286.612 67.8046C286.836 69.2749 287.061 70.7448 287.286 72.214C287.006 72.3034 286.709 72.3006 286.43 72.2062C286.152 72.1118 285.905 71.9297 285.719 71.6825C285.355 71.1812 285.077 70.6113 284.897 70.0004C283.916 67.3118 282.632 64.7697 281.077 62.4337C275.576 61.928 270.139 59.4122 265.302 56.4796C260.464 53.5485 255.936 50.0342 251.162 46.9788C250.335 46.4268 249.472 45.9408 248.582 45.5246C247.088 44.8637 245.412 44.5212 243.996 43.744C243.9 43.6923 243.805 43.6373 243.712 43.5808C243.392 43.3888 243.089 43.1643 242.807 42.9102C242.654 42.7736 242.509 42.6269 242.373 42.4707C241.667 41.5638 241.106 40.5298 240.717 39.4137C239.957 37.5588 239.686 35.3209 238.927 33.466C239.276 33.1065 239.668 32.8015 240.092 32.5596H240.093C240.155 32.524 240.216 32.4901 240.279 32.4578C240.579 32.3018 240.891 32.1758 241.212 32.0813C241.393 32.028 241.577 31.9843 241.761 31.9504C241.768 31.9496 241.776 31.9479 241.783 31.9456C242.639 31.7917 243.515 31.8682 244.338 32.1685C245.542 32.6177 246.557 33.5145 247.569 34.3628C249.213 35.6406 250.789 37.0206 252.291 38.4959C253.126 39.3781 253.888 40.3476 254.785 41.149C255.531 41.7843 256.318 42.3594 257.138 42.8699C261.996 46.0626 266.854 49.2549 271.712 52.4466C273.356 53.5275 275.002 54.6085 276.61 55.7525C279.053 57.491 281.408 59.375 283.761 61.2574C285.148 62.3658 286.534 63.4748 287.92 64.5843C288.374 64.9043 288.774 65.3115 289.098 65.7865C289.386 66.3258 289.564 66.927 289.621 67.5493C289.969 70.0632 289.773 72.6323 289.049 75.0465V75.0465Z" fill="#FBBEBE"/>
<path d="M246.615 56.5151C246.033 59.3993 243.391 61.1427 242.01 63.6762C240.294 66.8206 240.994 70.4754 241.638 74.077C240.461 75.1968 239.283 76.3165 238.104 77.4362C237.454 78.0518 236.804 78.6707 236.104 79.2152C235.083 79.9698 234.017 80.6457 232.912 81.2382C231.869 81.8295 230.827 82.4214 229.784 83.0139C228.815 83.6152 227.788 84.0954 226.722 84.4455C224.667 85.0272 222.485 84.62 220.453 83.9462C220.213 83.8768 219.983 83.7731 219.768 83.6376C219.641 83.5542 219.53 83.4438 219.442 83.3128C219.242 82.9164 219.169 82.4568 219.236 82.0089C219.442 78.2344 220.279 74.5391 221.112 70.8713C221.557 68.6709 222.156 66.5117 222.903 64.413C223.635 62.6148 224.477 60.8733 225.423 59.2005C226.467 57.0959 227.703 55.1148 229.113 53.2884C229.8 52.5854 230.377 51.7635 230.824 50.855C231.343 49.5463 231.143 48.0452 231.248 46.6201C231.329 45.5493 231.587 44.504 232.008 43.5356V43.5339C232.234 43.0123 232.506 42.5166 232.82 42.0539C232.962 42.419 233.104 42.7837 233.246 43.1478C233.339 43.3869 233.432 43.6255 233.524 43.8636C233.644 44.1706 233.763 44.4765 233.881 44.7813C234.222 45.6571 234.563 46.5323 234.903 47.407C235.271 48.5087 235.795 49.5389 236.456 50.4592C236.758 50.9305 237.165 51.3072 237.639 51.5528C238.112 51.7983 238.635 51.9042 239.156 51.86C239.678 51.8159 240.18 51.6233 240.614 51.301C241.048 50.9788 241.399 50.5378 241.632 50.0213C242.124 49.0571 242.481 48.016 242.689 46.9336C242.979 45.6156 243.019 44.246 242.807 42.9103C242.454 40.338 241.462 37.7107 240.742 35.321C240.449 34.5242 240.279 33.6786 240.24 32.8197C240.241 32.7232 240.25 32.627 240.266 32.5321C240.27 32.5079 240.275 32.482 240.279 32.4578C240.579 32.3018 240.891 32.1758 241.212 32.0813C241.393 32.028 241.576 31.9844 241.761 31.9504C242.395 35.7378 243.03 39.5252 243.666 43.3126C243.681 43.4015 243.697 43.4903 243.712 43.5808C243.802 44.1237 243.895 44.6666 243.997 45.2079C244.089 45.6991 244.189 46.1887 244.3 46.675L244.305 46.6896C244.343 46.8544 244.382 47.0176 244.423 47.1808L244.425 47.1856C244.537 47.6316 244.663 48.0743 244.805 48.5106C245.667 51.1394 247.167 53.7861 246.615 56.5151Z" fill="#1976D2"/>
<path d="M281.679 97.0468C281.652 97.6024 281.749 98.1569 281.963 98.6609C282.504 99.7513 283.801 99.9992 284.924 100.101C291.482 100.696 298.08 100.474 304.593 99.4399C304.947 99.4132 305.29 99.2958 305.595 99.0971C306.521 98.3807 305.95 96.6348 304.939 96.0759C303.927 95.517 302.728 95.6517 301.618 95.4096C300.516 95.1035 299.466 94.6012 298.51 93.9225C296.26 92.4961 294.043 91.009 291.859 89.4612C290.558 88.5397 289.023 87.5562 287.559 88.1025C283.591 89.5835 281.653 92.3245 281.679 97.0468Z" fill="#3F3D56"/>
<path d="M233.334 42.6146V42.6162C233.323 42.684 233.313 42.7503 233.3 42.8165C233.284 42.9264 233.265 43.0379 233.246 43.1477C233.064 44.1738 232.841 45.1949 232.585 46.2097C231.882 49.013 230.941 51.7712 230.006 54.4889C227.499 61.7761 224.992 69.0638 222.484 76.352C221.851 78.1875 221.22 80.0247 220.501 81.823C220.261 82.4225 220.014 83.0268 219.768 83.6376C218.886 85.8237 218.04 88.081 217.758 90.4077C217.496 91.939 217.466 93.5076 217.669 95.0498C217.95 96.5751 218.789 98.0649 220.103 98.6288C220.744 98.9051 221.662 99.2751 221.487 100.01C221.392 100.414 220.976 100.611 220.602 100.679C220.109 100.766 219.605 100.732 219.125 100.579C218.645 100.427 218.202 100.16 217.826 99.797C217.124 99.1103 216.585 98.0422 215.653 97.9275C215.007 97.85 214.412 98.2765 213.821 98.5754C211.407 99.7921 208.596 98.9406 206.061 98.0762C206.26 96.9435 207.291 96.197 208.315 95.9708C209.338 95.743 210.397 95.9046 211.441 95.8739C211.775 95.8936 212.107 95.7994 212.391 95.604C212.646 95.346 212.825 95.0093 212.904 94.6378C213.577 92.4389 214.077 90.1804 214.399 87.8871C214.736 85.4909 214.877 83.0575 215.357 80.6904C215.73 78.8435 216.307 77.0549 216.802 75.242C217.759 71.5093 218.545 67.7257 219.157 63.9057C219.466 62.3186 219.688 60.7122 219.82 59.0955C219.904 57.7544 219.864 56.4068 219.981 55.0706C220.178 53.3321 220.507 51.615 220.964 49.9373C221.412 48.1066 221.86 46.277 222.307 44.4485C222.97 41.742 223.682 38.9306 225.363 36.8268C225.947 36.0862 226.662 35.4858 227.465 35.0628C228.268 34.6398 229.141 34.4032 230.03 34.3676C230.363 34.3672 230.696 34.4067 231.021 34.4856C231.075 34.5001 231.13 34.5146 231.184 34.5308C231.539 34.6332 231.879 34.7887 232.196 34.9929C232.714 34.6294 232.978 34.757 233.322 35.3177C233.623 35.9111 233.766 36.587 233.732 37.2663C233.761 39.0593 233.627 40.8509 233.334 42.6146Z" fill="#FBBEBE"/>
<path d="M233.903 44.7571L233.881 44.7813L233.763 44.9122L232.585 46.2097L232.008 43.5356L230.03 34.3676C230.363 34.3672 230.696 34.4067 231.021 34.4856C231.035 34.3805 231.058 34.2772 231.09 34.1769L231.184 34.5308L231.855 37.0482L233.124 41.8277L233.334 42.6146V42.6162L233.903 44.7571Z" fill="#1976D2"/>
<path d="M241.374 15.509C241.373 16.3579 241.221 17.1983 240.925 17.9821C240.63 18.7659 240.197 19.4777 239.652 20.077C239.455 20.2951 239.243 20.497 239.019 20.681C238.009 21.5216 236.778 21.9765 235.512 21.9772H228.487C226.935 21.9745 225.447 21.2922 224.35 20.0801C223.253 18.8679 222.637 17.225 222.637 15.5122C222.637 13.7993 223.253 12.1564 224.35 10.9442C225.447 9.73209 226.935 9.04979 228.487 9.04715H235.512C237.065 9.05161 238.553 9.73364 239.651 10.9443C240.749 12.155 241.369 13.796 241.374 15.509V15.509Z" fill="#2F2E41"/>
<path d="M247.961 15.9962C251.277 15.9962 253.965 13.0302 253.965 9.37152C253.965 5.7128 251.277 2.74682 247.961 2.74682C244.645 2.74682 241.957 5.7128 241.957 9.37152C241.957 13.0302 244.645 15.9962 247.961 15.9962Z" fill="#2F2E41"/>
<path opacity="0.1" d="M247.815 2.74682C247.741 2.74682 247.668 2.75005 247.595 2.75295C249.148 2.81525 250.619 3.53984 251.698 4.77425C252.777 6.00866 253.379 7.65667 253.379 9.37152C253.379 11.0864 252.777 12.7344 251.698 13.9688C250.619 15.2032 249.148 15.9278 247.595 15.9901C247.668 15.993 247.741 15.9962 247.815 15.9962C249.407 15.9962 250.934 15.2983 252.06 14.0559C253.186 12.8135 253.819 11.1285 253.819 9.37152C253.819 7.61454 253.186 5.92952 252.06 4.68715C250.934 3.44478 249.407 2.74682 247.815 2.74682V2.74682Z" fill="black"/>
<path opacity="0.1" d="M219.259 2.74682C219.333 2.74682 219.406 2.75005 219.479 2.75295C217.926 2.81525 216.455 3.53984 215.376 4.77425C214.298 6.00866 213.695 7.65667 213.695 9.37152C213.695 11.0864 214.298 12.7344 215.376 13.9688C216.455 15.2032 217.926 15.9278 219.479 15.9901C219.406 15.993 219.333 15.9962 219.259 15.9962C217.668 15.9947 216.142 15.296 215.017 14.0538C213.893 12.8116 213.261 11.1275 213.261 9.37152C213.261 7.61555 213.893 5.93142 215.017 4.68921C216.142 3.44701 217.668 2.74837 219.259 2.74682Z" fill="black"/>
<path opacity="0.1" d="M239.019 20.681C238.009 21.5216 236.778 21.9765 235.512 21.9772H228.487C227.221 21.9765 225.99 21.5216 224.98 20.681H239.019Z" fill="black"/>
<path d="M284.387 68.6831C284.387 68.6831 285.9 73.4953 287.286 72.214L286.181 65.9238L284.387 68.6831Z" fill="#FBBEBE"/>
<path d="M468.574 215.437C469.984 216.002 471.493 216.199 472.983 216.011C474.474 215.823 475.904 215.255 477.162 214.353C478.419 213.451 479.47 212.239 480.231 210.813C480.991 209.386 481.442 207.784 481.545 206.133C481.649 204.482 481.404 202.827 480.83 201.298C480.255 199.769 479.366 198.409 478.233 197.323C477.101 196.238 475.755 195.458 474.303 195.045C472.85 194.631 471.331 194.595 469.864 194.941L470.106 200.441L467.747 195.727C465.433 196.927 463.644 199.092 462.775 201.747C462.467 202.676 462.279 203.65 462.218 204.638C462.069 206.955 462.609 209.263 463.756 211.212C464.903 213.161 466.594 214.644 468.574 215.437V215.437Z" fill="#57B894"/>
<path d="M480.244 279.235C479.412 274.557 483.02 270.41 486.583 267.714C490.147 265.019 494.311 262.37 495.527 257.795C497.274 251.22 492.069 245.199 488.018 240.007C485.012 236.153 482.431 231.92 480.328 227.397C479.485 225.583 478.71 223.687 478.488 221.663C478.169 218.749 479.018 215.848 479.873 213.069C482.72 203.808 485.765 194.625 489.007 185.52" stroke="#3F3D56" stroke-miterlimit="10"/>
<path d="M468.973 214.021C470.382 214.586 471.892 214.783 473.382 214.595C474.873 214.407 476.303 213.839 477.561 212.937C478.818 212.035 479.869 210.823 480.63 209.397C481.39 207.97 481.841 206.368 481.944 204.717C482.048 203.066 481.803 201.411 481.229 199.882C480.654 198.353 479.765 196.992 478.632 195.907C477.5 194.822 476.154 194.042 474.702 193.628C473.249 193.215 471.73 193.179 470.263 193.524L470.505 199.025L468.146 194.311C465.831 195.511 464.043 197.676 463.174 200.33C462.866 201.26 462.678 202.233 462.617 203.221C462.468 205.539 463.008 207.847 464.155 209.796C465.302 211.745 466.993 213.228 468.973 214.021V214.021Z" stroke="#3F3D56" stroke-miterlimit="10"/>
<path d="M479.06 183.62C479.614 181.936 480.542 180.432 481.761 179.248C482.979 178.063 484.448 177.236 486.032 176.843L486.829 182.072L488.308 176.58C490.361 176.614 492.351 177.366 493.991 178.729C495.63 180.092 496.835 181.995 497.431 184.163C498.027 186.33 497.984 188.651 497.307 190.79C496.629 192.928 495.354 194.774 493.664 196.06C491.974 197.347 489.957 198.007 487.905 197.947C485.853 197.886 483.871 197.107 482.246 195.723C480.621 194.339 479.436 192.42 478.864 190.245C478.291 188.069 478.36 185.749 479.06 183.62H479.06Z" fill="#57B894"/>
<path d="M479.592 181.732C480.146 180.047 481.074 178.544 482.292 177.359C483.511 176.175 484.979 175.348 486.564 174.955L487.361 180.184L488.839 174.692C490.892 174.725 492.882 175.478 494.522 176.841C496.162 178.204 497.367 180.106 497.963 182.274C498.559 184.442 498.515 186.763 497.838 188.901C497.161 191.04 495.885 192.886 494.196 194.172C492.506 195.459 490.489 196.119 488.437 196.059C486.384 195.998 484.403 195.219 482.778 193.835C481.153 192.45 479.968 190.532 479.396 188.357C478.823 186.181 478.892 183.861 479.592 181.732H479.592Z" stroke="#3F3D56" stroke-miterlimit="10"/>
<path d="M486.317 240.113C488.553 241.008 491.009 240.963 493.217 239.989C495.425 239.014 497.231 237.177 498.29 234.827C499.35 232.478 499.588 229.78 498.961 227.249C498.334 224.718 496.884 222.53 494.889 221.102L493.753 225.322L492.947 220.031C492.939 220.027 492.931 220.024 492.923 220.021C491.727 219.541 490.457 219.327 489.186 219.389C487.915 219.451 486.667 219.789 485.515 220.383C484.362 220.977 483.327 221.816 482.468 222.852C481.609 223.888 480.944 225.101 480.51 226.42C480.076 227.74 479.882 229.141 479.939 230.544C479.996 231.946 480.303 233.323 480.843 234.594C481.382 235.866 482.143 237.008 483.082 237.955C484.022 238.901 485.121 239.635 486.317 240.113H486.317Z" fill="#57B894"/>
<path d="M486.778 238.2C489.014 239.095 491.47 239.051 493.678 238.076C495.886 237.101 497.692 235.264 498.752 232.915C499.811 230.565 500.05 227.868 499.423 225.336C498.795 222.805 497.346 220.617 495.35 219.189L494.214 223.41L493.409 218.119C493.401 218.115 493.392 218.111 493.384 218.108C492.188 217.629 490.918 217.414 489.647 217.476C488.376 217.538 487.128 217.876 485.976 218.47C484.823 219.065 483.788 219.904 482.929 220.94C482.07 221.976 481.405 223.188 480.971 224.508C480.537 225.828 480.343 227.229 480.4 228.631C480.457 230.034 480.764 231.41 481.303 232.682C481.843 233.953 482.604 235.095 483.543 236.042C484.483 236.989 485.582 237.722 486.778 238.2H486.778Z" stroke="#3F3D56" stroke-miterlimit="10"/>
<path d="M476.234 257.86C476.618 260.274 477.743 262.468 479.42 264.075C481.096 265.682 483.223 266.605 485.442 266.687C487.662 266.769 489.84 266.007 491.611 264.528C493.382 263.049 494.638 260.944 495.168 258.564C495.699 256.185 495.472 253.676 494.526 251.459C493.579 249.242 491.97 247.452 489.97 246.389C487.969 245.325 485.697 245.053 483.536 245.618C481.375 246.183 479.456 247.551 478.1 249.492L482.416 256.658L476.519 252.855C476.062 254.474 475.964 256.191 476.234 257.86V257.86Z" fill="#57B894"/>
<path d="M476.633 256.444C477.017 258.858 478.142 261.052 479.819 262.659C481.495 264.266 483.622 265.188 485.841 265.271C488.061 265.353 490.239 264.591 492.01 263.112C493.78 261.633 495.037 259.527 495.567 257.148C496.098 254.768 495.871 252.26 494.924 250.043C493.978 247.826 492.369 246.036 490.368 244.972C488.368 243.909 486.096 243.637 483.935 244.202C481.774 244.767 479.855 246.135 478.499 248.076L482.815 255.242L476.918 251.438C476.461 253.058 476.363 254.775 476.633 256.444V256.444Z" stroke="#3F3D56" stroke-miterlimit="10"/>
<path d="M4.19191 241.471C5.11815 241.842 6.10994 241.971 7.08911 241.848C8.06828 241.724 9.00806 241.351 9.83438 240.759C10.6607 240.166 11.351 239.37 11.8508 238.433C12.3506 237.495 12.6463 236.443 12.7146 235.358C12.7828 234.273 12.6218 233.186 12.2442 232.181C11.8666 231.177 11.2827 230.283 10.5385 229.57C9.79436 228.857 8.91029 228.344 7.95599 228.073C7.0017 227.801 6.00325 227.777 5.03936 228.004L5.19865 231.618L3.64899 228.521C2.1281 229.309 0.953145 230.732 0.382331 232.476C0.179611 233.087 0.0563726 233.726 0.0162918 234.375C-0.081523 235.898 0.273193 237.415 1.02669 238.695C1.78018 239.975 2.89138 240.95 4.19191 241.471V241.471Z" fill="#57B894"/>
<path d="M11.8596 283.387C11.3126 280.314 13.683 277.589 16.0243 275.818C18.3657 274.047 21.1015 272.306 21.9004 269.301C23.0486 264.981 19.6286 261.025 16.9667 257.613C14.9919 255.082 13.296 252.301 11.9144 249.328C11.3138 248.161 10.9047 246.886 10.706 245.561C10.4961 243.646 11.0536 241.741 11.6153 239.915C13.4864 233.83 15.487 227.797 17.617 221.814" stroke="#3F3D56" stroke-miterlimit="10"/>
<path d="M4.45394 240.54C5.38018 240.912 6.37197 241.041 7.35114 240.917C8.33031 240.794 9.2701 240.421 10.0964 239.828C10.9227 239.236 11.613 238.439 12.1128 237.502C12.6126 236.565 12.9083 235.512 12.9766 234.427C13.0449 233.343 12.8838 232.255 12.5062 231.251C12.1286 230.246 11.5447 229.352 10.8005 228.639C10.0564 227.926 9.17233 227.414 8.21803 227.142C7.26373 226.87 6.26529 226.847 5.3014 227.074L5.46068 230.688L3.91102 227.59C2.39013 228.379 1.21517 229.802 0.644356 231.545C0.441638 232.156 0.318401 232.796 0.278318 233.445C0.180496 234.968 0.53521 236.484 1.28871 237.764C2.0422 239.045 3.15341 240.019 4.45394 240.54V240.54Z" stroke="#3F3D56" stroke-miterlimit="10"/>
<path d="M11.0818 220.566C11.4453 219.46 12.0554 218.472 12.8558 217.694C13.6563 216.916 14.6213 216.372 15.6621 216.114L16.186 219.55L17.1575 215.941C18.5062 215.963 19.8137 216.458 20.8912 217.353C21.9687 218.248 22.7604 219.499 23.152 220.923C23.5436 222.347 23.5148 223.872 23.0699 225.277C22.625 226.682 21.7868 227.895 20.6766 228.74C19.5663 229.585 18.2413 230.019 16.8928 229.979C15.5444 229.939 14.2424 229.428 13.1746 228.518C12.1069 227.609 11.3288 226.348 10.9526 224.919C10.5765 223.49 10.6217 221.965 11.0818 220.566V220.566Z" fill="#57B894"/>
<path d="M11.4313 219.326C11.7948 218.219 12.4048 217.231 13.2053 216.453C14.0057 215.675 14.9708 215.132 16.0116 214.873L16.5355 218.309L17.507 214.7C18.8557 214.723 20.1632 215.217 21.2407 216.112C22.3182 217.008 23.1099 218.258 23.5015 219.682C23.8931 221.106 23.8643 222.631 23.4194 224.036C22.9744 225.441 22.1363 226.654 21.026 227.499C19.9158 228.345 18.5907 228.779 17.2423 228.739C15.8939 228.699 14.5918 228.187 13.5241 227.278C12.4564 226.368 11.6783 225.108 11.3021 223.678C10.9259 222.249 10.9712 220.725 11.4313 219.326V219.326Z" stroke="#3F3D56" stroke-miterlimit="10"/>
<path d="M15.8497 257.683C17.3186 258.271 18.9322 258.242 20.383 257.602C21.8338 256.961 23.0203 255.754 23.7163 254.21C24.4123 252.667 24.5692 250.894 24.1571 249.231C23.7449 247.568 22.7926 246.131 21.4815 245.193L20.7351 247.966L20.2058 244.489C20.2006 244.487 20.1952 244.484 20.1896 244.483C19.4039 244.167 18.5696 244.026 17.7343 244.067C16.8991 244.107 16.0793 244.329 15.3218 244.72C14.5644 245.11 13.884 245.661 13.3197 246.342C12.7555 247.023 12.3183 247.819 12.0332 248.687C11.7481 249.554 11.6206 250.475 11.6581 251.396C11.6957 252.318 11.8974 253.222 12.2518 254.057C12.6063 254.893 13.1065 255.643 13.7238 256.265C14.3411 256.887 15.0635 257.369 15.8497 257.683V257.683Z" fill="#57B894"/>
<path d="M16.1525 256.427C17.6214 257.014 19.235 256.985 20.6858 256.345C22.1366 255.705 23.3231 254.497 24.0191 252.954C24.7151 251.41 24.872 249.638 24.4598 247.975C24.0477 246.312 23.0954 244.874 21.7843 243.936L21.0379 246.709L20.5086 243.233C20.5034 243.23 20.498 243.228 20.4924 243.226C19.7069 242.911 18.8729 242.771 18.0381 242.812C17.2033 242.853 16.384 243.075 15.627 243.466C14.0983 244.255 12.9161 245.681 12.3406 247.432C11.7651 249.182 11.8434 251.113 12.5582 252.8C13.2731 254.487 14.566 255.791 16.1525 256.427V256.427Z" stroke="#3F3D56" stroke-miterlimit="10"/>
<path d="M9.22477 269.344C9.47734 270.929 10.2164 272.371 11.318 273.427C12.4195 274.483 13.8166 275.089 15.275 275.143C16.7333 275.197 18.1642 274.696 19.3277 273.725C20.4911 272.753 21.3164 271.369 21.665 269.806C22.0137 268.243 21.8646 266.594 21.2427 265.138C20.6208 263.681 19.5639 262.505 18.2493 261.807C16.9348 261.108 15.4424 260.929 14.0225 261.3C12.6027 261.671 11.3417 262.57 10.451 263.845L13.2863 268.554L9.41229 266.055C9.11191 267.119 9.0476 268.247 9.22477 269.344V269.344Z" fill="#57B894"/>
<path d="M9.4868 268.413C9.73937 269.999 10.4784 271.441 11.58 272.497C12.6816 273.552 14.0787 274.158 15.537 274.212C16.9953 274.267 18.4262 273.766 19.5897 272.794C20.7531 271.822 21.5784 270.439 21.9271 268.875C22.2757 267.312 22.1266 265.664 21.5047 264.207C20.8828 262.751 19.826 261.575 18.5114 260.876C17.1968 260.177 15.7044 259.999 14.2846 260.37C12.8647 260.741 11.6037 261.64 10.7131 262.915L13.5483 267.624L9.67431 265.124C9.37393 266.188 9.30963 267.316 9.4868 268.413V268.413Z" stroke="#3F3D56" stroke-miterlimit="10"/>
<path d="M223.822 175.161C228.192 175.161 231.734 170.103 231.734 163.864C231.734 157.625 228.192 152.567 223.822 152.567C219.453 152.567 215.911 157.625 215.911 163.864C215.911 170.103 219.453 175.161 223.822 175.161Z" fill="#2F2E41"/>
<path d="M266.87 175.418C271.239 175.418 274.781 170.36 274.781 164.121C274.781 157.882 271.239 152.824 266.87 152.824C262.501 152.824 258.959 157.882 258.959 164.121C258.959 170.36 262.501 175.418 266.87 175.418Z" fill="#2F2E41"/>
<path d="M260.82 197.498C260.82 202.602 254.361 206.741 246.393 206.741C238.426 206.741 231.967 202.602 231.967 197.498C231.967 193.077 236.811 189.38 243.285 188.476C244.315 188.326 245.354 188.252 246.393 188.255C248.135 188.249 249.872 188.456 251.573 188.872C256.981 190.202 260.82 193.565 260.82 197.498Z" fill="#2F2E41"/>
<path d="M225.684 172.594C230.053 172.594 233.595 167.536 233.595 161.297C233.595 155.058 230.053 150 225.684 150C221.315 150 217.772 155.058 217.772 161.297C217.772 167.536 221.315 172.594 225.684 172.594Z" stroke="#3F3D56" stroke-miterlimit="10"/>
<path d="M268.732 172.851C273.101 172.851 276.643 167.793 276.643 161.554C276.643 155.315 273.101 150.257 268.732 150.257C264.362 150.257 260.82 155.315 260.82 161.554C260.82 167.793 264.362 172.851 268.732 172.851Z" stroke="#3F3D56" stroke-miterlimit="10"/>
<path d="M248.255 204.174C256.223 204.174 262.682 200.036 262.682 194.931C262.682 189.826 256.223 185.688 248.255 185.688C240.287 185.688 233.828 189.826 233.828 194.931C233.828 200.036 240.287 204.174 248.255 204.174Z" stroke="#3F3D56" stroke-miterlimit="10"/>
<path d="M251.745 189.642C251.749 190.288 251.529 190.911 251.131 191.384C250.943 191.61 250.714 191.791 250.459 191.916C250.205 192.04 249.929 192.105 249.651 192.107H244.997C244.424 192.085 243.881 191.813 243.489 191.351C243.097 190.889 242.886 190.275 242.903 189.642C242.901 189.141 243.033 188.651 243.285 188.234C244.314 188.074 245.353 187.996 246.393 187.999C248.137 187.992 249.876 188.213 251.573 188.656C251.688 188.969 251.746 189.304 251.745 189.642V189.642Z" fill="white"/>
<path d="M225.684 160.783C226.969 160.783 228.011 159.634 228.011 158.216C228.011 156.798 226.969 155.648 225.684 155.648C224.399 155.648 223.357 156.798 223.357 158.216C223.357 159.634 224.399 160.783 225.684 160.783Z" fill="white"/>
<path d="M268.964 160.783C270.249 160.783 271.291 159.634 271.291 158.216C271.291 156.798 270.249 155.648 268.964 155.648C267.679 155.648 266.637 156.798 266.637 158.216C266.637 159.634 267.679 160.783 268.964 160.783Z" fill="white"/>
<path opacity="0.3" d="M271.291 184.918C272.576 184.918 273.618 183.768 273.618 182.35C273.618 180.932 272.576 179.783 271.291 179.783C270.006 179.783 268.964 180.932 268.964 182.35C268.964 183.768 270.006 184.918 271.291 184.918Z" fill="#ED3939"/>
<path opacity="0.3" d="M214.515 184.918C215.8 184.918 216.842 183.768 216.842 182.35C216.842 180.932 215.8 179.783 214.515 179.783C213.23 179.783 212.188 180.932 212.188 182.35C212.188 183.768 213.23 184.918 214.515 184.918Z" fill="#ED3939"/>
</g>
<defs>
<clipPath id="clip0_101_58">
<rect width="500" height="300" fill="white"/>
</clipPath>
</defs>
</svg>
